<svg width="826" height="150" viewBox="0 0 826 150" fill="none" xmlns="http://www.w3.org/2000/svg">
<rect width="826" height="150" fill="#E5E5E5"/>
<mask id="mask0_0_1" style="mask-type:alpha" maskUnits="userSpaceOnUse" x="669" y="50" width="70" height="43">
<mask id="path-1-outside-1_0_1" maskUnits="userSpaceOnUse" x="669.96" y="50" width="69" height="43" fill="black">
<rect fill="white" x="669.96" y="50" width="69" height="43"/>
<path d="M730.76 84.4C730.76 80.9331 730.077 77.5002 728.75 74.2972C727.424 71.0942 725.479 68.1838 723.028 65.7324C720.576 63.2809 717.666 61.3363 714.463 60.0096C711.26 58.6829 707.827 58 704.36 58C700.893 58 697.46 58.6829 694.257 60.0096C691.054 61.3363 688.144 63.2809 685.692 65.7324C683.241 68.1838 681.296 71.0942 679.97 74.2972C678.643 77.5002 677.96 80.9331 677.96 84.4L704.36 84.4H730.76Z"/>
</mask>
<path d="M730.76 84.4C730.76 80.9331 730.077 77.5002 728.75 74.2972C727.424 71.0942 725.479 68.1838 723.028 65.7324C720.576 63.2809 717.666 61.3363 714.463 60.0096C711.26 58.6829 707.827 58 704.36 58C700.893 58 697.46 58.6829 694.257 60.0096C691.054 61.3363 688.144 63.2809 685.692 65.7324C683.241 68.1838 681.296 71.0942 679.97 74.2972C678.643 77.5002 677.96 80.9331 677.96 84.4L704.36 84.4H730.76Z" stroke="black" stroke-width="16" mask="url(#path-1-outside-1_0_1)"/>
</mask>
<g mask="url(#mask0_0_1)">
<rect x="658.6" y="48.32" width="86.24" height="36.08" fill="black"/>
</g>
<path d="M663 90.12C668.427 85.5733 681.656 77.096 691.16 79.56C703.04 82.64 707 88.36 712.72 87.48C718.44 86.6 726.36 80.88 731.64 81.32C735.864 81.672 746.307 85.5733 751 87.48" stroke="black" stroke-width="7"/>
<path d="M663 105.08C668.427 100.534 681.656 92.0563 691.16 94.5203C703.04 97.6003 707 103.32 712.72 102.44C718.44 101.56 726.36 95.8403 731.64 96.2803C735.864 96.6323 746.307 100.534 751 102.44" stroke="black" stroke-width="7"/>
<path d="M384.648 42.84V111H373.8V80.952H339.432V111H328.68V42.84H339.432V71.352H373.8V42.84H384.648Z" fill="black"/>
<path d="M438 111.48C433.136 111.48 428.688 110.52 424.656 108.6C420.688 106.68 417.264 104.088 414.384 100.824C411.504 97.496 409.264 93.784 407.664 89.688C406.128 85.528 405.36 81.272 405.36 76.92C405.36 72.376 406.192 68.056 407.856 63.96C409.52 59.8 411.824 56.12 414.768 52.92C417.712 49.656 421.168 47.096 425.136 45.24C429.168 43.32 433.52 42.36 438.192 42.36C443.056 42.36 447.472 43.352 451.44 45.336C455.472 47.32 458.896 49.976 461.712 53.304C464.592 56.632 466.8 60.344 468.336 64.44C469.936 68.536 470.736 72.728 470.736 77.016C470.736 81.56 469.904 85.912 468.24 90.072C466.64 94.168 464.368 97.848 461.424 101.112C458.48 104.312 454.992 106.84 450.96 108.696C446.992 110.552 442.672 111.48 438 111.48ZM416.304 76.92C416.304 81.208 417.2 85.272 418.992 89.112C420.784 92.888 423.28 95.96 426.48 98.328C429.744 100.632 433.616 101.784 438.096 101.784C441.488 101.784 444.528 101.08 447.216 99.672C449.904 98.264 452.176 96.376 454.032 94.008C455.888 91.576 457.296 88.888 458.256 85.944C459.216 83 459.696 79.992 459.696 76.92C459.696 72.632 458.8 68.6 457.008 64.824C455.28 61.048 452.784 58.008 449.52 55.704C446.256 53.336 442.448 52.152 438.096 52.152C434.64 52.152 431.568 52.856 428.88 54.264C426.192 55.672 423.92 57.56 422.064 59.928C420.208 62.296 418.768 64.952 417.744 67.896C416.784 70.84 416.304 73.848 416.304 76.92Z" fill="black"/>
<path d="M491.68 111V42.84H521.344C524.416 42.84 527.232 43.48 529.792 44.76C532.352 46.04 534.56 47.736 536.416 49.848C538.336 51.96 539.808 54.328 540.832 56.952C541.92 59.576 542.464 62.264 542.464 65.016C542.464 68.088 541.888 71 540.736 73.752C539.648 76.44 538.112 78.776 536.128 80.76C534.144 82.744 531.808 84.184 529.12 85.08L545.152 111H533.056L518.272 87.288H502.432V111H491.68ZM502.432 77.784H521.248C523.232 77.784 524.992 77.208 526.528 76.056C528.064 74.84 529.28 73.272 530.176 71.352C531.072 69.432 531.52 67.32 531.52 65.016C531.52 62.648 531.008 60.536 529.984 58.68C528.96 56.76 527.616 55.224 525.952 54.072C524.288 52.92 522.528 52.344 520.672 52.344H502.432V77.784Z" fill="black"/>
<path d="M564.68 111V42.84H575.432V111H564.68Z" fill="black"/>
<path d="M595.976 102.744L637.16 52.344H596.936V42.84H649.928V51.096L609.8 101.496H650.024V111H595.976V102.744Z" fill="black"/>
<path d="M778.432 62.808V111H767.68V42.84H776.512L815.104 92.088V42.936H825.952V111H816.544L778.432 62.808Z" fill="black"/>
<path d="M529.818 6.002H525.57V17H523.536V6.002H519.27V4.22H529.818V6.002ZM558.118 15.218V17H549.352V4.22H557.956V6.002H551.368V9.638H557.074V11.312H551.368V15.218H558.118ZM581.707 4.22H583.615L588.584 17H586.459L585.11 13.526H580.177L578.845 17H576.703L581.707 4.22ZM584.713 12.032L582.661 6.434L580.537 12.032H584.713ZM618.73 17V7.892L614.968 14.804H613.78L610 7.892V17H607.984V4.22H610.144L614.374 12.032L618.604 4.22H620.764V17H618.73Z" fill="black"/>
<rect width="150" height="150" fill="black"/>
<path d="M73.696 50.344H51.04V109H40.192V50.344H17.44V40.84H73.696V50.344ZM125.844 40.84V109H114.996V78.952H80.6283V109H69.8763V40.84H80.6283V69.352H114.996V40.84H125.844Z" fill="white"/>
</svg>
